<?xml version="1.0" standalone="no"?>
<!DOCTYPE svg PUBLIC "-//W3C//DTD SVG 20010904//EN"
 "http://www.w3.org/TR/2001/REC-SVG-20010904/DTD/svg10.dtd">
<svg version="1.0" xmlns="http://www.w3.org/2000/svg"
 width="16.000000pt" height="16.000000pt" viewBox="0 0 16.000000 16.000000"
 preserveAspectRatio="xMidYMid meet">
<metadata>
Created by potrace 1.11, written by Peter Selinger 2001-2013
</metadata>
<g transform="translate(0.000000,16.000000) scale(0.006154,-0.006154)"
fill="#000000" stroke="none">
<path d="M0 1300 l0 -1300 1300 0 1300 0 0 1300 0 1300 -1300 0 -1300 0 0
-1300z m684 947 c9 -13 7 -25 -8 -50 -109 -182 -140 -281 -140 -452 0 -171 31
-270 140 -452 22 -37 12 -66 -24 -71 -37 -6 -123 143 -168 295 -24 77 -27 105
-27 228 0 123 3 151 27 228 45 152 131 301 168 295 12 -2 26 -11 32 -21z
m1304 -19 c47 -69 90 -161 118 -255 24 -77 27 -105 27 -228 0 -123 -3 -151
-27 -228 -45 -152 -131 -301 -168 -295 -36 5 -46 34 -24 71 109 182 140 281
140 452 0 93 -5 137 -22 198 -22 76 -70 182 -111 242 -24 34 -26 56 -9 73 22
22 47 12 76 -30z m-1130 -130 c19 -19 15 -34 -28 -121 -76 -156 -76 -308 0
-464 44 -89 47 -105 25 -123 -25 -21 -52 -1 -88 68 -54 102 -71 172 -71 287 0
110 17 181 64 276 43 84 70 105 98 77z m927 -4 c24 -24 71 -122 91 -190 24
-80 24 -238 0 -319 -24 -79 -84 -193 -106 -200 -26 -8 -50 5 -50 27 0 11 18
57 40 101 76 156 76 308 0 464 -43 87 -47 102 -28 121 16 16 34 15 53 -4z
m-744 -144 c23 -13 24 -41 4 -80 -31 -60 -38 -124 -20 -192 9 -34 20 -67 25
-72 17 -17 11 -55 -9 -66 -31 -16 -47 -3 -77 63 -49 108 -33 266 33 339 19 21
19 21 44 8z m552 -8 c66 -73 82 -231 33 -339 -30 -66 -46 -79 -77 -63 -25 14
-24 36 3 96 29 66 29 152 0 218 -27 59 -28 82 -4 95 23 14 27 14 45 -7z m-254
-88 c31 -12 45 -26 62 -60 21 -44 21 -46 4 -89 -9 -25 -20 -47 -24 -50 -4 -2
97 -291 224 -642 128 -351 235 -648 239 -660 l7 -23 -556 0 -556 0 7 23 c4 12
111 308 238 657 l231 635 -24 48 c-23 47 -23 48 -6 93 14 37 25 50 59 65 50
23 47 23 95 3z"/>
<path d="M1262 1763 c-12 -23 -5 -40 19 -53 27 -15 64 22 49 50 -13 25 -56 26
-68 3z"/>
<path d="M1282 1593 c-26 -65 -102 -277 -102 -285 0 -4 52 -8 115 -8 63 0 115
4 115 8 0 10 -99 282 -109 300 -6 10 -11 6 -19 -15z"/>
<path d="M1325 1166 c83 -28 151 -51 153 -50 2 1 -5 25 -15 53 l-18 51 -135
-1 -135 0 150 -53z"/>
<path d="M1111 1129 c-4 -13 -11 -34 -15 -46 l-7 -23 148 0 148 1 -115 38
c-63 21 -123 42 -132 46 -13 5 -20 1 -27 -16z"/>
<path d="M1092 975 c14 -15 498 -172 497 -162 0 7 -13 46 -28 87 l-27 75 -224
3 c-123 1 -221 0 -218 -3z"/>
<path d="M1021 878 c-4 -13 -18 -49 -30 -81 -11 -32 -21 -60 -21 -62 0 -3 125
-5 277 -5 159 0 273 4 267 9 -9 8 -461 161 -477 161 -4 0 -11 -10 -16 -22z"/>
<path d="M1070 650 c0 -8 645 -198 647 -191 2 3 -12 47 -31 96 l-33 90 -291 5
c-161 3 -292 3 -292 0z"/>
<path d="M915 588 c-2 -7 -18 -50 -34 -95 l-30 -83 351 0 c193 0 349 2 347 5
-6 5 -606 185 -619 185 -6 0 -13 -6 -15 -12z"/>
</g>
</svg>
