<?xml version="1.0" encoding="utf-8"?>
<!-- Generator: Adobe Illustrator 16.0.0, SVG Export Plug-In . SVG Version: 6.00 Build 0)  -->
<!DOCTYPE svg PUBLIC "-//W3C//DTD SVG 1.1//EN" "http://www.w3.org/Graphics/SVG/1.1/DTD/svg11.dtd">
<svg version="1.1" id="Layer_1" xmlns="http://www.w3.org/2000/svg" xmlns:xlink="http://www.w3.org/1999/xlink" x="0px" y="0px"
	 width="521.369px" height="544.595px" viewBox="49.694 59.424 521.369 544.595"
	 enable-background="new 49.694 59.424 521.369 544.595" xml:space="preserve">
<g>
	<path fill="#103E5F" d="M493.7,567.666v9.119c0,14.993-12.24,27.233-27.228,27.233H151.531c-14.994,0-27.234-12.24-27.234-27.233
		v-8.201c-9.792-3.917-15.606-13.464-17.564-23.507L68.728,349.304c-11.934,0-19.033-11.199-19.033-22.154v-38.923
		c0-10.648,7.038-22.154,18.666-22.154h94.799L271.055,64.296c2.387-4.468,7.895-6.12,12.362-3.794
		c4.468,2.387,6.12,7.895,3.794,12.363L183.906,266.011h252.94L333.54,72.864c-2.393-4.468-0.667-9.976,3.794-12.363
		c4.462-2.387,9.976-0.673,12.369,3.794l107.89,201.776h94.799c11.688,0,18.672,11.628,18.672,22.154v38.923
		c0,10.649-7.038,22.154-18.672,22.154h-5.142l-38.005,195.773c-1.347,6.86-4.345,13.219-8.996,17.81
		c-1.959,1.958-4.162,3.549-6.61,4.841L493.7,567.666z M386.172,366.869c0-5.08,4.101-9.18,9.18-9.18c5.08,0,9.181,4.1,9.181,9.18
		v147.248c0,5.079-4.101,9.18-9.181,9.18c-5.079,0-9.18-4.101-9.18-9.18V366.869z M327.242,366.869c0-5.08,4.101-9.18,9.181-9.18
		c5.073,0,9.18,4.1,9.18,9.18v147.248c0,5.079-4.106,9.18-9.18,9.18c-5.08,0-9.181-4.101-9.181-9.18V366.869z M269.219,366.869
		c0-5.08,4.101-9.18,9.18-9.18s9.18,4.1,9.18,9.18v147.248c0,5.079-4.1,9.18-9.18,9.18s-9.18-4.101-9.18-9.18V366.869z
		 M211.507,366.869c0-5.08,4.1-9.18,9.18-9.18s9.18,4.1,9.18,9.18v147.248c0,5.079-4.101,9.18-9.18,9.18s-9.18-4.101-9.18-9.18
		V366.869z M471.484,291.96c6.916,1.836,12.057,8.14,12.057,15.606c0,8.935-7.222,16.157-16.156,16.157
		c-8.936,0-16.157-7.222-16.157-16.157c0-3.427,1.04-6.609,2.877-9.241l-7.521-14.076h-272.53l-7.466,14.015
		c1.836,2.631,2.938,5.814,2.938,9.241c0,8.935-7.222,16.157-16.157,16.157s-16.157-7.222-16.157-16.157
		c0-7.466,5.08-13.77,11.995-15.606l4.101-7.65H72.032c-3.611,0-3.917,0.795-4.039,3.794v38.93c0,3.543,0.184,3.788,2.57,3.788
		h478.89c2.938,0,3.25,0.734,3.25-3.788v-38.93c0-4.957-0.251-3.794-5.33-3.794h-79.988l4.1,7.65V291.96z M87.394,349.182
		l37.393,192.351c0.857,4.529,3.55,10.41,8.936,10.472l42.412,0.306c0,6.12-0.062,12.173-0.062,18.293
		c-11.138-0.062-22.277-0.122-33.415-0.238v6.358c0,4.841,3.978,8.88,8.874,8.88h314.941c4.828,0,8.867-3.978,8.867-8.88v-6.365
		c-79.247,0.612-158.568,0.796-237.823,0.551V552.61c81.585,0.245,163.22,0.123,244.8-0.611c1.952,0,3.672-0.863,5.012-2.143
		c1.959-1.958,3.305-4.963,3.973-8.268L528.7,349.231H87.516L87.394,349.182z"/>
</g>
</svg>
