<?xml version="1.0" encoding="UTF-8" standalone="no"?>
<svg
   xmlns:dc="http://purl.org/dc/elements/1.1/"
   xmlns:cc="http://creativecommons.org/ns#"
   xmlns:rdf="http://www.w3.org/1999/02/22-rdf-syntax-ns#"
   xmlns:svg="http://www.w3.org/2000/svg"
   xmlns="http://www.w3.org/2000/svg"
   xmlns:xlink="http://www.w3.org/1999/xlink"
   xmlns:sodipodi="http://sodipodi.sourceforge.net/DTD/sodipodi-0.dtd"
   xmlns:inkscape="http://www.inkscape.org/namespaces/inkscape"
   version="1.1"
   x="0px"
   y="0px"
   viewBox="0 0 90 89.297997"
   enable-background="new 0 0 100 100"
   xml:space="preserve"
   id="svg3775"
   sodipodi:docname="calendar-icon.svg"
   width="90"
   height="89.297997"
   inkscape:version="0.92.1 r15371"><metadata
     id="metadata3781"><rdf:RDF><cc:Work
         rdf:about=""><dc:format>image/svg+xml</dc:format><dc:type
           rdf:resource="http://purl.org/dc/dcmitype/StillImage" /></cc:Work></rdf:RDF></metadata><defs
     id="defs3779" /><sodipodi:namedview
     pagecolor="#ffffff"
     bordercolor="#666666"
     borderopacity="1"
     objecttolerance="10"
     gridtolerance="10"
     guidetolerance="10"
     inkscape:pageopacity="0"
     inkscape:pageshadow="2"
     inkscape:window-width="1920"
     inkscape:window-height="1137"
     id="namedview3777"
     showgrid="false"
     inkscape:zoom="7.744"
     inkscape:cx="24.016012"
     inkscape:cy="42.479579"
     inkscape:window-x="-8"
     inkscape:window-y="-8"
     inkscape:window-maximized="1"
     inkscape:current-layer="g3767" /><symbol
     viewBox="-27.299 -39.024 54.598 78.047"
     id="symbol3684"
     transform="translate(-5,-5.351)"><path
       d="M 11.157,34.02 C 9.882,32.17 7.749,30.994 5.424,30.994 c -2.13,0 -4.118,0.985 -5.424,2.607 -1.306,-1.622 -3.294,-2.607 -5.423,-2.607 -2.325,0 -4.457,1.176 -5.734,3.026 -1.275,-1.85 -3.408,-3.026 -5.733,-3.026 -1.913,0 -3.648,0.776 -4.908,2.029 v -66.474 c 1.26,1.253 2.995,2.029 4.908,2.029 2.325,0 4.458,-1.176 5.733,-3.026 1.277,1.85 3.409,3.026 5.734,3.026 2.129,0 4.117,-0.986 5.423,-2.607 1.306,1.622 3.294,2.607 5.424,2.607 2.325,0 4.458,-1.176 5.733,-3.026 1.277,1.85 3.409,3.026 5.734,3.026 1.913,0 3.647,-0.776 4.907,-2.028 v 66.473 c -1.26,-1.253 -2.994,-2.028 -4.907,-2.028 -2.324,0 -4.456,1.175 -5.734,3.025 z"
       id="path3680"
       inkscape:connector-curvature="0"
       style="fill:none" /><path
       stroke-miterlimit="10"
       d="m -20.463,-37.524 c 0.391,1.615 1.839,2.822 3.573,2.822 1.733,0 3.181,-1.207 3.572,-2.822 h 4.323 c 0.391,1.615 1.839,2.822 3.573,2.822 1.734,0 3.182,-1.207 3.573,-2.822 h 3.701 c 0.391,1.615 1.839,2.822 3.573,2.822 1.734,0 3.182,-1.207 3.573,-2.822 h 4.322 c 0.391,1.615 1.839,2.822 3.573,2.822 1.734,0 3.182,-1.207 3.573,-2.822 h 5.335 v 75.047 h -5.266 c -0.219,-1.825 -1.759,-3.25 -3.641,-3.25 -1.882,0 -3.423,1.425 -3.641,3.25 H 9.065 c -0.219,-1.825 -1.759,-3.25 -3.641,-3.25 -1.882,0 -3.423,1.425 -3.641,3.25 H -1.781 C -2,35.698 -3.54,34.273 -5.422,34.273 c -1.882,0 -3.423,1.425 -3.641,3.25 h -4.186 c -0.219,-1.825 -1.758,-3.25 -3.641,-3.25 -1.883,0 -3.423,1.425 -3.641,3.25 h -5.267 v -75.047 z"
       id="path3682"
       inkscape:connector-curvature="0"
       style="fill:#000000;stroke:#000000;stroke-width:3;stroke-miterlimit:10" /></symbol><symbol
     viewBox="-30.282 -48.056 60.563 94.113"
     id="symbol3690"
     transform="translate(-5,-5.351)"><path
       stroke-miterlimit="10"
       d="m 16.006,43.056 c -3.233,-4.883 -8.77,-8.108 -15.065,-8.108 -6.295,0 -11.832,3.225 -15.065,8.108 h -10.584 v -88.113 h 10.584 c 3.233,4.883 8.77,8.108 15.065,8.108 6.295,0 11.832,-3.224 15.065,-8.108 H 26.59 v 88.113 z"
       id="path3686"
       inkscape:connector-curvature="0"
       style="fill:#000000;stroke:#000000;stroke-width:6;stroke-miterlimit:10" /><line
       stroke-miterlimit="10"
       x1="27.781"
       y1="-20.754999"
       x2="-27.782"
       y2="-20.754999"
       id="line3688"
       style="fill:none;stroke:#000000;stroke-width:5;stroke-linecap:round;stroke-linejoin:round;stroke-miterlimit:10;stroke-dasharray:7, 8" /></symbol><symbol
     viewBox="-24.712 -42.834 54.356 85.667"
     id="symbol3696"
     transform="translate(-5,-5.351)"><path
       stroke-miterlimit="10"
       d="m 17.181,40.333 h -4.475 c -0.466,-2.355 -2.539,-4.131 -5.031,-4.131 -2.491,0 -4.565,1.776 -5.03,4.131 h -4.883 c -0.466,-2.355 -2.539,-4.131 -5.031,-4.131 -2.491,0 -4.565,1.776 -5.03,4.131 h -4.883 c -0.466,-2.355 -2.539,-4.131 -5.03,-4.131 v -72.023 c 2.622,0 4.76,-1.974 5.069,-4.512 h 4.806 c 0.309,2.539 2.447,4.512 5.069,4.512 2.622,0 4.76,-1.974 5.069,-4.512 h 4.806 c 0.309,2.539 2.447,4.512 5.069,4.512 2.622,0 4.76,-1.974 5.069,-4.512 h 4.398 c 0.309,2.539 2.447,4.512 5.069,4.512 v 72.023 c -2.492,0 -4.565,1.776 -5.031,4.131 z"
       id="path3692"
       inkscape:connector-curvature="0"
       style="fill:#000000;stroke:#000000;stroke-width:5;stroke-miterlimit:10" /><line
       stroke-miterlimit="10"
       x1="-22.643999"
       y1="-17.395"
       x2="27.643999"
       y2="-17.395"
       id="line3694"
       style="fill:none;stroke:#000000;stroke-width:4;stroke-linecap:round;stroke-linejoin:round;stroke-miterlimit:10;stroke-dasharray:7, 6" /></symbol><symbol
     viewBox="-23.971 -42.094 47.944 84.188"
     id="symbol3704"
     transform="translate(-5,-5.351)"><g
       id="g3700"><path
         stroke-miterlimit="10"
         d="m 17.182,40.333 h -4.475 c -0.466,-2.355 -2.539,-4.131 -5.031,-4.131 -2.491,0 -4.565,1.776 -5.03,4.131 h -4.883 c -0.466,-2.355 -2.539,-4.131 -5.031,-4.131 -2.491,0 -4.565,1.776 -5.03,4.131 h -4.883 c -0.466,-2.355 -2.539,-4.131 -5.03,-4.131 v -72.023 c 2.622,0 4.76,-1.974 5.069,-4.512 h 4.806 c 0.309,2.539 2.447,4.512 5.069,4.512 2.622,0 4.76,-1.974 5.069,-4.512 h 4.806 c 0.309,2.539 2.447,4.512 5.069,4.512 2.622,0 4.76,-1.974 5.069,-4.512 h 4.398 c 0.309,2.539 2.447,4.512 5.069,4.512 v 72.023 c -2.492,0 -4.565,1.776 -5.031,4.131 z"
         id="path3698"
         inkscape:connector-curvature="0"
         style="fill:#000000;stroke:#000000;stroke-width:3.52099991;stroke-miterlimit:10" /></g><polygon
       stroke-miterlimit="10"
       points="8.431,7.217 7.524,-0.241 0.124,1.057 -7.248,-0.385 -8.301,7.053 -11.951,13.62 -5.201,16.919 -0.084,22.42 5.14,17.02 11.952,13.853 "
       id="polygon3702"
       style="fill:#000000;stroke:#000000;stroke-width:3.81130004;stroke-miterlimit:10" /></symbol><symbol
     id="a"
     viewBox="-21.087 -31.266 42.17 72.87"
     transform="translate(-5,-5.351)"><path
       stroke-miterlimit="10"
       d="m 6.373,39.104 h 5.21 c 0,-3.87 3.13,-7 7,-7 v -53.87 c -3.87,0 -7,-3.14 -7,-7 h -5.21"
       id="path3706"
       inkscape:connector-curvature="0"
       style="fill:#000000;stroke:#000000;stroke-width:5;stroke-miterlimit:10" /><path
       stroke-miterlimit="10"
       d="m -6.377,-28.766 h -5.21 c 0,3.86 -3.13,7 -7,7 v 53.87 c 3.87,0 7,3.13 7,7 h 5.21"
       id="path3708"
       inkscape:connector-curvature="0"
       style="fill:#000000;stroke:#000000;stroke-width:5;stroke-miterlimit:10" /><line
       stroke-miterlimit="10"
       x1="2.3729999"
       y1="39.104"
       x2="-2.3770001"
       y2="39.104"
       id="line3710"
       style="fill:none;stroke:#000000;stroke-width:5;stroke-miterlimit:10" /><line
       stroke-miterlimit="10"
       x1="2.3729999"
       y1="-28.766001"
       x2="-2.3770001"
       y2="-28.766001"
       id="line3712"
       style="fill:none;stroke:#000000;stroke-width:5;stroke-miterlimit:10" /><g
       id="g3722"><path
         stroke-miterlimit="10"
         d="m -9.901,-10.118 c 0,-0.994 -0.806,-1.8 -1.8,-1.8 -0.994,0 -1.8,0.806 -1.8,1.8 0,0.994 0.806,1.8 1.8,1.8 0.994,0 1.8,-0.806 1.8,-1.8 z"
         id="path3714"
         inkscape:connector-curvature="0"
         style="stroke:#000000;stroke-width:0.89999998;stroke-miterlimit:10" /><path
         stroke-miterlimit="10"
         d="m -2.101,-10.118 c 0,-0.994 -0.806,-1.8 -1.8,-1.8 -0.994,0 -1.8,0.806 -1.8,1.8 0,0.994 0.806,1.8 1.8,1.8 0.994,0 1.8,-0.806 1.8,-1.8 z"
         id="path3716"
         inkscape:connector-curvature="0"
         style="stroke:#000000;stroke-width:0.89999998;stroke-miterlimit:10" /><path
         stroke-miterlimit="10"
         d="m 5.699,-10.118 c 0,-0.994 -0.806,-1.8 -1.8,-1.8 -0.994,0 -1.8,0.806 -1.8,1.8 0,0.994 0.806,1.8 1.8,1.8 0.994,0 1.8,-0.806 1.8,-1.8 z"
         id="path3718"
         inkscape:connector-curvature="0"
         style="stroke:#000000;stroke-width:0.89999998;stroke-miterlimit:10" /><path
         stroke-miterlimit="10"
         d="m 13.499,-10.118 c 0,-0.994 -0.806,-1.8 -1.8,-1.8 -0.994,0 -1.8,0.806 -1.8,1.8 0,0.994 0.806,1.8 1.8,1.8 0.994,0 1.8,-0.806 1.8,-1.8 z"
         id="path3720"
         inkscape:connector-curvature="0"
         style="stroke:#000000;stroke-width:0.89999998;stroke-miterlimit:10" /></g></symbol><symbol
     viewBox="-21.086 -31.266 42.17 72.87"
     id="symbol3729"
     transform="translate(-5,-5.351)"><use
       xlink:href="#a"
       width="42.169998"
       height="72.870003"
       x="-21.087"
       y="-31.266001"
       transform="translate(5.0006996,5.3507329)"
       overflow="visible"
       id="use3725"
       style="overflow:visible" /><line
       stroke-miterlimit="10"
       x1="9.224"
       y1="13.75"
       x2="-9.2229996"
       y2="13.75"
       id="line3727"
       style="fill:none;stroke:#000000;stroke-width:4;stroke-miterlimit:10" /></symbol><g
     display="none"
     id="g3733"
     style="display:none"
     transform="translate(-5,-5.351)"><path
       display="inline"
       d="M 1188.792,1074.743 H -49.006 c -2.084,0 -3.789,-1.705 -3.789,-3.789 V -116.211 c 0,-2.084 1.705,-3.789 3.789,-3.789 h 1237.798 c 2.084,0 3.789,1.705 3.789,3.789 v 1187.164 c 0,2.085 -1.704,3.79 -3.789,3.79 z"
       id="path3731"
       inkscape:connector-curvature="0"
       style="display:inline;fill:#000000" /></g><g
     id="g3769"
     transform="translate(-5,-5.351)"><g
       id="g3767"><path
         d="m 11.353,85.66 c 0,1.454 1.182,2.636 2.636,2.636 H 70.823 V 78.227 c 0,-4.957 4.033,-8.99 8.99,-8.99 h 8.834 V 35.267 H 11.353 Z M 71.529,44.002 h 7.412 v 7.412 h -7.412 z m 0,14.294 h 7.412 v 7.412 H 71.529 Z M 54.765,44.002 h 7.412 v 7.412 h -7.412 z m 0,14.294 h 7.412 v 7.412 h -7.412 z m 0,14.294 h 7.412 v 7.412 H 54.765 Z M 38,44.002 h 7.412 v 7.412 H 38 Z m 0,14.294 h 7.412 v 7.412 H 38 Z m 0,14.294 h 7.412 v 7.412 H 38 Z M 21.235,44.002 h 7.412 v 7.412 h -7.412 z m 0,14.294 h 7.412 v 7.412 h -7.412 z m 0,14.294 h 7.412 v 7.412 h -7.412 z"
         id="path3735"
         inkscape:connector-curvature="0"
         style="fill:none" /><path
         d="m 77.176,78.227 v 7.843 l 9.956,-10.479 h -7.32 c -1.453,-10e-4 -2.636,1.182 -2.636,2.636 z"
         id="path3737"
         inkscape:connector-curvature="0"
         style="fill:none" /><path
         d="m 86.01,12.061 h -5.552 v 3.173 4.386 c 0,3.562 -2.887,6.449 -6.449,6.449 H 73.59 c -3.562,0 -6.449,-2.887 -6.449,-6.449 V 15.234 12.061 H 32.173 v 3.173 4.386 c 0,3.562 -2.887,6.449 -6.449,6.449 h -0.419 c -3.562,0 -6.449,-2.887 -6.449,-6.449 V 15.234 12.061 H 13.989 C 9.025,12.061 5,16.086 5,21.05 v 64.61 c 0,4.965 4.025,8.989 8.989,8.989 h 59.083 l 4.235,-0.141 c 0.523,-0.151 1.018,-0.424 1.42,-0.848 L 93.243,78.381 c 0.152,-0.16 0.343,-0.384 0.544,-0.629 C 94.569,76.797 95,75.6 95,74.365 V 21.051 c 0,-4.965 -4.025,-8.99 -8.99,-8.99 z M 77.176,86.07 v -7.843 c 0,-1.454 1.183,-2.637 2.637,-2.637 h 7.32 z M 88.647,69.237 h -8.834 c -4.957,0 -8.99,4.033 -8.99,8.99 V 88.296 H 13.989 c -1.454,0 -2.636,-1.182 -2.636,-2.636 V 35.267 h 77.294 z"
         id="path3739"
         inkscape:connector-curvature="0"
         style="fill:#103e5f;fill-opacity:1" /><path
         d="m 25.724,23.299 c 2.029,0 3.679,-1.65 3.679,-3.679 V 9.03 c 0,-2.029 -1.65,-3.679 -3.679,-3.679 h -0.419 c -2.029,0 -3.679,1.65 -3.679,3.679 v 10.59 c 0,2.029 1.65,3.679 3.679,3.679 z"
         id="path3741"
         inkscape:connector-curvature="0"
         style="fill:#103e5f;fill-opacity:1" /><path
         d="m 74.009,23.299 c 2.029,0 3.68,-1.65 3.68,-3.679 V 9.03 c 0,-2.029 -1.651,-3.679 -3.68,-3.679 H 73.59 c -2.029,0 -3.679,1.65 -3.679,3.679 v 10.59 c 0,2.029 1.65,3.679 3.679,3.679 z"
         id="path3743"
         inkscape:connector-curvature="0"
         style="fill:#103e5f;fill-opacity:1" /><rect
         x="21.235001"
         y="44.001999"
         width="7.4120002"
         height="7.4120002"
         id="rect3745"
         style="fill:#103e5f;fill-opacity:1" /><rect
         x="38"
         y="44.001999"
         width="7.4120002"
         height="7.4120002"
         id="rect3747"
         style="fill:#103e5f;fill-opacity:1" /><rect
         x="54.764999"
         y="44.001999"
         width="7.4120002"
         height="7.4120002"
         id="rect3749"
         style="fill:#103e5f;fill-opacity:1" /><rect
         x="71.528999"
         y="44.001999"
         width="7.4120002"
         height="7.4120002"
         id="rect3751"
         style="fill:#103e5f;fill-opacity:1" /><rect
         x="21.235001"
         y="58.296001"
         width="7.4120002"
         height="7.4120002"
         id="rect3753"
         style="fill:#103e5f;fill-opacity:1" /><rect
         x="38"
         y="58.296001"
         width="7.4120002"
         height="7.4120002"
         id="rect3755"
         style="fill:#103e5f;fill-opacity:1" /><rect
         x="54.764999"
         y="58.296001"
         width="7.4120002"
         height="7.4120002"
         id="rect3757"
         style="fill:#103e5f;fill-opacity:1" /><rect
         x="71.528999"
         y="58.296001"
         width="7.4120002"
         height="7.4120002"
         id="rect3759"
         style="fill:#103e5f;fill-opacity:1" /><rect
         x="21.235001"
         y="72.589996"
         width="7.4120002"
         height="7.4120002"
         id="rect3761"
         style="fill:#103e5f;fill-opacity:1" /><rect
         x="38"
         y="72.589996"
         width="7.4120002"
         height="7.4120002"
         id="rect3763"
         style="fill:#103e5f;fill-opacity:1" /><rect
         x="54.764999"
         y="72.589996"
         width="7.4120002"
         height="7.4120002"
         id="rect3765"
         style="fill:#103e5f;fill-opacity:1" /></g></g></svg>