<svg xmlns="http://www.w3.org/2000/svg" xmlns:xlink="http://www.w3.org/1999/xlink" version="1.1" x="0px" y="0px" viewBox="0 0 100 125" style="enable-background:new 0 0 100 100;" xml:space="preserve"><path d="M76,29H24c-2.8,0-5,2.2-5,5v32c0,1.1,0.4,2.2,1,3c0.3,0.4,0.6,0.7,1,1c0.8,0.6,1.9,1,3,1h52c1.1,0,2.2-0.4,3-1  c0.4-0.3,0.7-0.6,1-1c0.6-0.8,1-1.9,1-3V34C81,31.2,78.8,29,76,29z M24,31h52c0.4,0,0.8,0.1,1.1,0.2l-26.5,21  c-0.4,0.3-0.9,0.3-1.2,0l-26.5-21C23.2,31.1,23.6,31,24,31z M79,66c0,0.5-0.1,1-0.3,1.4l-17-15.1c-0.4-0.4-1-0.3-1.4,0.1  c-0.4,0.4-0.3,1,0.1,1.4l16.9,15C76.8,68.9,76.4,69,76,69H24c-0.4,0-0.8-0.1-1.2-0.3l16.9-15c0.4-0.4,0.5-1,0.1-1.4  c-0.4-0.4-1-0.4-1.4-0.1l-17,15.1C21.1,67,21,66.5,21,66V34c0-0.5,0.1-1,0.4-1.4l26.8,21.2c0.5,0.4,1.2,0.7,1.9,0.7s1.3-0.2,1.9-0.7  l26.8-21.2C78.9,33,79,33.5,79,34V66z"/><text x="0" y="115" fill="#000000" font-size="5px" font-weight="bold" font-family="'Helvetica Neue', Helvetica, Arial-Unicode, Arial, Sans-serif">Created by Cengiz SARI</text><text x="0" y="120" fill="#000000" font-size="5px" font-weight="bold" font-family="'Helvetica Neue', Helvetica, Arial-Unicode, Arial, Sans-serif">from the Noun Project</text></svg>