<?xml version="1.0" encoding="utf-8"?>
<!-- Generator: Adobe Illustrator 16.0.0, SVG Export Plug-In . SVG Version: 6.00 Build 0)  -->
<!DOCTYPE svg PUBLIC "-//W3C//DTD SVG 1.1//EN" "http://www.w3.org/Graphics/SVG/1.1/DTD/svg11.dtd">
<svg version="1.1"
	 id="svg3775" xmlns:sodipodi="http://sodipodi.sourceforge.net/DTD/sodipodi-0.dtd" xmlns:cc="http://creativecommons.org/ns#" xmlns:rdf="http://www.w3.org/1999/02/22-rdf-syntax-ns#" xmlns:svg="http://www.w3.org/2000/svg" xmlns:dc="http://purl.org/dc/elements/1.1/" xmlns:inkscape="http://www.inkscape.org/namespaces/inkscape" inkscape:version="0.92.1 r15371" sodipodi:docname="calendar-icon.svg"
	 xmlns="http://www.w3.org/2000/svg" xmlns:xlink="http://www.w3.org/1999/xlink" x="0px" y="0px" width="90px" height="55.781px"
	 viewBox="0 0 90 55.781" enable-background="new 0 0 90 55.781" xml:space="preserve">
<sodipodi:namedview  showgrid="false" guidetolerance="10" gridtolerance="10" inkscape:cx="24.016012" inkscape:zoom="7.744" inkscape:cy="42.479579" objecttolerance="10" pagecolor="#ffffff" bordercolor="#666666" borderopacity="1" id="namedview3777" inkscape:current-layer="g3767" inkscape:window-maximized="1" inkscape:window-y="-8" inkscape:window-x="-8" inkscape:window-height="1137" inkscape:window-width="1920" inkscape:pageshadow="2" inkscape:pageopacity="0">
	</sodipodi:namedview>
<g id="g3733" transform="translate(-5,-5.351)" display="none">
	<path id="path3731" inkscape:connector-curvature="0" display="inline" d="M1188.792,1074.742H-49.006
		c-2.084,0-3.789-1.703-3.789-3.787V-116.211c0-2.084,1.705-3.789,3.789-3.789h1237.798c2.084,0,3.789,1.705,3.789,3.789v1187.164
		C1192.581,1073.037,1190.877,1074.742,1188.792,1074.742L1188.792,1074.742z"/>
</g>
<g id="g3769" transform="translate(-5,-5.351)" display="none">
	<g id="g3767" display="inline">
		<path id="path3735" inkscape:connector-curvature="0" fill="none" d="M11.353,85.66c0,1.454,1.182,2.636,2.636,2.636h56.834
			V78.227c0-4.957,4.032-8.99,8.989-8.99h8.834V35.267H11.353V85.66z M71.529,44.002h7.412v7.412h-7.412V44.002z M71.529,58.296
			h7.412v7.412h-7.412V58.296z M54.766,44.002h7.411v7.412h-7.411V44.002z M54.766,58.296h7.411v7.412h-7.411V58.296z M54.766,72.59
			h7.411v7.412h-7.411V72.59z M38,44.002h7.412v7.412H38V44.002z M38,58.296h7.412v7.412H38V58.296z M38,72.59h7.412v7.412H38V72.59
			z M21.235,44.002h7.412v7.412h-7.412V44.002z M21.235,58.296h7.412v7.412h-7.412V58.296z M21.235,72.59h7.412v7.412h-7.412V72.59z
			"/>
		<path id="path3737" inkscape:connector-curvature="0" fill="none" d="M77.176,78.227v7.844l9.956-10.479h-7.319
			C78.359,75.59,77.176,76.773,77.176,78.227z"/>
		<path id="path3739" inkscape:connector-curvature="0" fill="#103E5F" d="M86.01,12.061h-5.552v3.173v4.386
			c0,3.562-2.888,6.449-6.449,6.449H73.59c-3.563,0-6.449-2.887-6.449-6.449v-4.386v-3.173H32.173v3.173v4.386
			c0,3.562-2.887,6.449-6.449,6.449h-0.419c-3.562,0-6.449-2.887-6.449-6.449v-4.386v-3.173h-4.867C9.025,12.061,5,16.086,5,21.05
			v64.61c0,4.965,4.025,8.988,8.989,8.988h59.083l4.234-0.141c0.523-0.15,1.019-0.424,1.42-0.848l14.517-15.279
			c0.151-0.16,0.343-0.384,0.544-0.629C94.568,76.797,95,75.6,95,74.365V21.051C95,16.086,90.975,12.061,86.01,12.061z
			 M77.176,86.07v-7.844c0-1.453,1.184-2.637,2.637-2.637h7.32L77.176,86.07z M88.646,69.236h-8.834
			c-4.957,0-8.989,4.033-8.989,8.99v10.069H13.989c-1.454,0-2.636-1.182-2.636-2.636V35.267h77.293V69.236z"/>
		<path id="path3741" inkscape:connector-curvature="0" fill="#103E5F" d="M25.724,23.299c2.029,0,3.679-1.65,3.679-3.679V9.03
			c0-2.029-1.65-3.679-3.679-3.679h-0.419c-2.029,0-3.679,1.65-3.679,3.679v10.59c0,2.029,1.65,3.679,3.679,3.679H25.724z"/>
		<path id="path3743" inkscape:connector-curvature="0" fill="#103E5F" d="M74.009,23.299c2.029,0,3.681-1.65,3.681-3.679V9.03
			c0-2.029-1.651-3.679-3.681-3.679H73.59c-2.029,0-3.679,1.65-3.679,3.679v10.59c0,2.029,1.649,3.679,3.679,3.679H74.009z"/>
		<rect id="rect3745" x="21.235" y="44.002" fill="#103E5F" width="7.412" height="7.412"/>
		<rect id="rect3747" x="38" y="44.002" fill="#103E5F" width="7.412" height="7.412"/>
		<rect id="rect3749" x="54.766" y="44.002" fill="#103E5F" width="7.411" height="7.412"/>
		<rect id="rect3751" x="71.529" y="44.002" fill="#103E5F" width="7.412" height="7.412"/>
		<rect id="rect3753" x="21.235" y="58.296" fill="#103E5F" width="7.412" height="7.412"/>
		<rect id="rect3755" x="38" y="58.296" fill="#103E5F" width="7.412" height="7.412"/>
		<rect id="rect3757" x="54.766" y="58.296" fill="#103E5F" width="7.411" height="7.412"/>
		<rect id="rect3759" x="71.529" y="58.296" fill="#103E5F" width="7.412" height="7.412"/>
		<rect id="rect3761" x="21.235" y="72.59" fill="#103E5F" width="7.412" height="7.412"/>
		<rect id="rect3763" x="38" y="72.59" fill="#103E5F" width="7.412" height="7.412"/>
		<rect id="rect3765" x="54.766" y="72.59" fill="#103E5F" width="7.411" height="7.412"/>
	</g>
</g>
<path fill="#103E5F" d="M69.339,6.828l10.896,20.734c0,0-1.198,2.654-4.011,5.676c-2.043,2.193-4.691,4.086-4.691,4.086
	L51.478,15.078c0,0-0.829-0.909-2.192-1.06c-1.002-0.112-2.875,0.604-2.875,0.604L35.06,20.828c0,0-2.652,1.845-4.542-0.832
	c-1.816-2.573,1.438-4.843,1.438-4.843S42.172,6.755,48.907,3.65c3.358-1.548,6.432-0.984,8.551,0.151
	c2.12,1.136,5.526,3.524,7.19,4.163C66.613,8.72,69.339,6.828,69.339,6.828z"/>
<path fill="#103E5F" d="M90.25,23.682L78.231,1.278c-0.316-0.59-1.05-0.812-1.638-0.495l-4.646,2.452
	c-0.589,0.317-0.812,1.051-0.496,1.641L83.472,27.28c0.316,0.589,1.05,0.811,1.64,0.496l4.646-2.454
	C90.346,25.006,90.566,24.271,90.25,23.682z M85.606,23.968c-0.941,0-1.7-0.761-1.7-1.701c0-0.94,0.759-1.705,1.7-1.705
	c0.94,0,1.704,0.765,1.704,1.705C87.311,23.206,86.547,23.968,85.606,23.968z"/>
<path fill="#103E5F" d="M21.161,36.042c-0.073-0.039-1.824-1.008-4.896-3.771c-1.788-1.606-3.739-4.433-3.821-4.552
	c-0.255-0.372-0.284-0.856-0.071-1.254L23.168,6.182c0.289-0.539,0.936-0.779,1.507-0.558l0,0c0.001,0,0.579,0.213,1.91,0.468
	c1.367,0.263,2.423-0.047,4.172-0.565c0.344-0.102,0.708-0.211,1.099-0.318c1.021-0.29,2.08-0.88,3.202-1.507
	c1.332-0.743,2.708-1.511,4.24-1.907c3.365-0.866,5.398,1.593,5.481,1.698l-1.876,1.532c-0.046-0.055-1.17-1.356-3.001-0.886
	c-1.231,0.316-2.467,1.008-3.663,1.675c-1.196,0.668-2.432,1.358-3.728,1.723c-0.378,0.105-0.732,0.21-1.067,0.31
	c-1.884,0.557-3.37,0.995-5.314,0.622c-0.522-0.1-0.947-0.196-1.285-0.282l-9.981,18.748c0.641,0.878,1.903,2.526,3.02,3.534
	c2.863,2.573,4.422,3.435,4.437,3.443L21.161,36.042z"/>
<path fill="#103E5F" d="M54.35,54.348c-1.538,0-2.558-0.888-2.676-0.991l0.814-0.898l0.801-0.911
	c0.315,0.271,1.474,1.011,3.025-0.79c1.586-1.839,0.369-3.747,0.358-3.766l2.024-1.326c0.778,1.186,1.662,4.109-0.55,6.675
	c-1.077,1.248-2.271,1.919-3.554,1.999C54.513,54.345,54.432,54.348,54.35,54.348z"/>
<path fill="#103E5F" d="M61.609,49.387c-1.158,0-2.108-0.441-2.615-0.672c-1.144-0.528-2.915-2.405-3.257-2.773
	c-0.452-0.489-0.425-1.258,0.066-1.713c0.49-0.453,1.255-0.426,1.711,0.066c0.833,0.899,2.022,2.003,2.494,2.221
	c1.095,0.504,2.102,0.825,3.34-0.376c1.526-1.477,0.224-3.472-0.013-3.802l-6.987-7.44c-0.458-0.487-0.434-1.253,0.054-1.71
	c0.486-0.458,1.254-0.435,1.712,0.053l7.037,7.492c0.031,0.031,0.059,0.064,0.083,0.1c1.036,1.369,2.324,4.603-0.197,7.047
	C63.842,49.039,62.641,49.387,61.609,49.387z"/>
<path fill="#103E5F" d="M68.979,45.368c-1.763,0-3.193-0.83-3.884-1.494l-3.719-3.642l1.695-1.73l3.709,3.632
	c0.168,0.154,1.866,1.622,4.139,0.216c0.944-0.584,1.519-1.229,1.666-1.865c0.143-0.624-0.156-1.108-0.169-1.128l2.003-1.36
	c0.092,0.132,0.88,1.331,0.542,2.95c-0.275,1.333-1.207,2.495-2.767,3.461C71.065,45.108,69.969,45.368,68.979,45.368z"/>
<path fill="#103E5F" d="M27.235,40.987c-1.227,1.227-3.215,1.227-4.442,0l0,0c-1.226-1.227-1.226-3.214,0-4.44l1.499-1.499
	c1.226-1.227,3.214-1.227,4.44,0l0,0c1.227,1.227,1.227,3.213,0,4.44L27.235,40.987z"/>
<path fill="#103E5F" d="M33.365,46.033c-1.226,1.227-3.215,1.227-4.441,0l0,0c-1.226-1.226-1.226-3.215,0-4.441l4.923-4.924
	c1.226-1.225,3.215-1.225,4.441,0l0,0c1.227,1.228,1.226,3.216,0,4.44L33.365,46.033z"/>
<path fill="#103E5F" d="M40.401,50.825c-1.227,1.226-3.214,1.226-4.441,0l0,0c-1.227-1.228-1.227-3.216,0-4.442l6.247-6.247
	c1.226-1.224,3.215-1.224,4.441,0l0,0c1.227,1.228,1.227,3.215,0,4.441L40.401,50.825z"/>
<path fill="#103E5F" d="M47.692,54.86c-1.229,1.228-3.215,1.228-4.442,0l0,0c-1.228-1.227-1.228-3.213,0-4.44l3.257-3.258
	c1.226-1.225,3.215-1.226,4.44,0l0,0c1.228,1.227,1.228,3.214,0,4.441L47.692,54.86z"/>
<circle fill="#103E5F" cx="5.765" cy="22.527" r="1.703"/>
<g>
	<path fill="#103E5F" d="M13.966,2.422c0.193,0,0.39,0.047,0.572,0.146l2.97,1.667c0.588,0.317,0.809,1.052,0.492,1.64L7.611,25.558
		c-0.219,0.404-0.635,0.636-1.066,0.636c-0.193,0-0.391-0.047-0.573-0.145L3.002,24.38c-0.59-0.317-0.809-1.052-0.492-1.642
		l10.388-19.68C13.118,2.653,13.535,2.422,13.966,2.422 M13.966,0c-1.338,0-2.563,0.732-3.2,1.91l-0.005,0.009L10.757,1.93
		L0.373,21.601c-0.457,0.852-0.554,1.831-0.276,2.757c0.276,0.92,0.89,1.68,1.733,2.139l2.957,1.661l0.017,0.012l0.02,0.01
		c0.529,0.283,1.123,0.435,1.722,0.435c1.338,0,2.564-0.732,3.198-1.91l0.005-0.009l0.005-0.01L20.138,7.012
		c0.938-1.753,0.284-3.941-1.458-4.897l-2.955-1.66l-0.019-0.01l-0.018-0.011C15.16,0.151,14.563,0,13.966,0L13.966,0z"/>
</g>
<path fill="#103E5F" d="M57.987,47.74c-0.321,0-0.645-0.128-0.882-0.381l-7.039-7.491c-0.457-0.488-0.433-1.254,0.055-1.712
	c0.487-0.458,1.254-0.434,1.711,0.053l7.038,7.494c0.458,0.486,0.436,1.253-0.053,1.71C58.582,47.632,58.284,47.74,57.987,47.74z"/>
</svg>
