<?xml version="1.0" encoding="utf-8"?>
<!-- Generator: Adobe Illustrator 16.0.0, SVG Export Plug-In . SVG Version: 6.00 Build 0)  -->
<!DOCTYPE svg PUBLIC "-//W3C//DTD SVG 1.1//EN" "http://www.w3.org/Graphics/SVG/1.1/DTD/svg11.dtd">
<svg version="1.1"
	 id="svg3775" xmlns:sodipodi="http://sodipodi.sourceforge.net/DTD/sodipodi-0.dtd" xmlns:cc="http://creativecommons.org/ns#" xmlns:rdf="http://www.w3.org/1999/02/22-rdf-syntax-ns#" xmlns:svg="http://www.w3.org/2000/svg" xmlns:dc="http://purl.org/dc/elements/1.1/" xmlns:inkscape="http://www.inkscape.org/namespaces/inkscape" inkscape:version="0.92.1 r15371" sodipodi:docname="calendar-icon.svg"
	 xmlns="http://www.w3.org/2000/svg" xmlns:xlink="http://www.w3.org/1999/xlink" x="0px" y="0px" width="90px" height="89.297px"
	 viewBox="0 0 90 89.297" enable-background="new 0 0 90 89.297" xml:space="preserve">
<sodipodi:namedview  showgrid="false" guidetolerance="10" gridtolerance="10" inkscape:cx="24.016012" inkscape:zoom="7.744" inkscape:cy="42.479579" objecttolerance="10" pagecolor="#ffffff" bordercolor="#666666" borderopacity="1" id="namedview3777" inkscape:current-layer="g3767" inkscape:window-maximized="1" inkscape:window-y="-8" inkscape:window-x="-8" inkscape:window-height="1137" inkscape:window-width="1920" inkscape:pageshadow="2" inkscape:pageopacity="0">
	</sodipodi:namedview>
<g id="g3733" transform="translate(-5,-5.351)" display="none">
	<path id="path3731" inkscape:connector-curvature="0" display="inline" d="M1188.792,1074.742H-49.006
		c-2.084,0-3.789-1.703-3.789-3.787V-116.211c0-2.084,1.705-3.789,3.789-3.789h1237.798c2.084,0,3.789,1.705,3.789,3.789v1187.164
		C1192.581,1073.037,1190.877,1074.742,1188.792,1074.742L1188.792,1074.742z"/>
</g>
<g id="g3769" transform="translate(-5,-5.351)" display="none">
	<g id="g3767" display="inline">
		<path id="path3735" inkscape:connector-curvature="0" fill="none" d="M11.353,85.66c0,1.454,1.182,2.636,2.636,2.636h56.834
			V78.227c0-4.957,4.032-8.99,8.989-8.99h8.834V35.267H11.353V85.66z M71.529,44.002h7.412v7.412h-7.412V44.002z M71.529,58.296
			h7.412v7.412h-7.412V58.296z M54.766,44.002h7.411v7.412h-7.411V44.002z M54.766,58.296h7.411v7.412h-7.411V58.296z M54.766,72.59
			h7.411v7.412h-7.411V72.59z M38,44.002h7.412v7.412H38V44.002z M38,58.296h7.412v7.412H38V58.296z M38,72.59h7.412v7.412H38V72.59
			z M21.235,44.002h7.412v7.412h-7.412V44.002z M21.235,58.296h7.412v7.412h-7.412V58.296z M21.235,72.59h7.412v7.412h-7.412V72.59z
			"/>
		<path id="path3737" inkscape:connector-curvature="0" fill="none" d="M77.176,78.227v7.844l9.956-10.479h-7.319
			C78.359,75.59,77.176,76.773,77.176,78.227z"/>
		<path id="path3739" inkscape:connector-curvature="0" fill="#103E5F" d="M86.01,12.061h-5.552v3.173v4.386
			c0,3.562-2.888,6.449-6.449,6.449H73.59c-3.563,0-6.449-2.887-6.449-6.449v-4.386v-3.173H32.173v3.173v4.386
			c0,3.562-2.887,6.449-6.449,6.449h-0.419c-3.562,0-6.449-2.887-6.449-6.449v-4.386v-3.173h-4.867C9.025,12.061,5,16.086,5,21.05
			v64.61c0,4.965,4.025,8.988,8.989,8.988h59.083l4.234-0.141c0.523-0.15,1.019-0.424,1.42-0.848l14.517-15.279
			c0.151-0.16,0.343-0.384,0.544-0.629C94.568,76.797,95,75.6,95,74.365V21.051C95,16.086,90.975,12.061,86.01,12.061z
			 M77.176,86.07v-7.844c0-1.453,1.184-2.637,2.637-2.637h7.32L77.176,86.07z M88.646,69.236h-8.834
			c-4.957,0-8.989,4.033-8.989,8.99v10.069H13.989c-1.454,0-2.636-1.182-2.636-2.636V35.267h77.293V69.236z"/>
		<path id="path3741" inkscape:connector-curvature="0" fill="#103E5F" d="M25.724,23.299c2.029,0,3.679-1.65,3.679-3.679V9.03
			c0-2.029-1.65-3.679-3.679-3.679h-0.419c-2.029,0-3.679,1.65-3.679,3.679v10.59c0,2.029,1.65,3.679,3.679,3.679H25.724z"/>
		<path id="path3743" inkscape:connector-curvature="0" fill="#103E5F" d="M74.009,23.299c2.029,0,3.681-1.65,3.681-3.679V9.03
			c0-2.029-1.651-3.679-3.681-3.679H73.59c-2.029,0-3.679,1.65-3.679,3.679v10.59c0,2.029,1.649,3.679,3.679,3.679H74.009z"/>
		<rect id="rect3745" x="21.235" y="44.002" fill="#103E5F" width="7.412" height="7.412"/>
		<rect id="rect3747" x="38" y="44.002" fill="#103E5F" width="7.412" height="7.412"/>
		<rect id="rect3749" x="54.766" y="44.002" fill="#103E5F" width="7.411" height="7.412"/>
		<rect id="rect3751" x="71.529" y="44.002" fill="#103E5F" width="7.412" height="7.412"/>
		<rect id="rect3753" x="21.235" y="58.296" fill="#103E5F" width="7.412" height="7.412"/>
		<rect id="rect3755" x="38" y="58.296" fill="#103E5F" width="7.412" height="7.412"/>
		<rect id="rect3757" x="54.766" y="58.296" fill="#103E5F" width="7.411" height="7.412"/>
		<rect id="rect3759" x="71.529" y="58.296" fill="#103E5F" width="7.412" height="7.412"/>
		<rect id="rect3761" x="21.235" y="72.59" fill="#103E5F" width="7.412" height="7.412"/>
		<rect id="rect3763" x="38" y="72.59" fill="#103E5F" width="7.412" height="7.412"/>
		<rect id="rect3765" x="54.766" y="72.59" fill="#103E5F" width="7.411" height="7.412"/>
	</g>
</g>
<g>
	<path fill="#103E5F" d="M89.04,37.408c0.559-1.117,0.559-2.792,0-3.908l-3.908-3.908c-0.558-0.559-1.116-0.559-2.233-0.559
		c-0.559,0-1.675,0-2.233,0.559l-30.149,29.59v2.234V67h8.934L89.04,37.408z"/>
	<rect x="17.016" y="16.75" fill="#103E5F" width="55.833" height="5.583"/>
	<polygon fill="#103E5F" points="17.016,33.5 68.94,33.5 72.849,29.592 72.849,27.917 17.016,27.917 	"/>
	<rect x="17.016" y="61.417" fill="#103E5F" width="27.917" height="5.584"/>
	<polygon fill="#103E5F" points="17.016,44.667 57.773,44.667 63.357,39.083 17.016,39.083 	"/>
	<path fill="#103E5F" d="M84.016,50.25v22.333c0,6.141-5.025,11.167-11.167,11.167H17.016c-6.142,0-11.167-5.026-11.167-11.167
		V16.75c0-6.142,5.024-11.167,11.167-11.167h55.833c6.142,0,11.167,5.024,11.167,11.167v6.7c1.675,0,3.35,1.117,5.024,2.233
		l0.559,0.559V16.75C89.599,7.258,82.34,0,72.849,0H17.016C7.524,0,0.266,7.258,0.266,16.75v55.833c0,9.49,7.258,16.75,16.75,16.75
		h55.833c9.491,0,16.75-7.26,16.75-16.75V44.667L84.016,50.25z"/>
	<polygon fill="#103E5F" points="17.016,55.833 46.607,55.833 47.165,55.275 52.19,50.25 17.016,50.25 	"/>
</g>
</svg>
