<svg xmlns="http://www.w3.org/2000/svg" xmlns:xlink="http://www.w3.org/1999/xlink" xmlns:fi="http://pattern.flaticon.com/" x="0" y="0" width="700" height="350" viewBox="0 0 816.6666666666667 408.33333333333337"><rect x="0px" y="0px" width="100%" height="100%" opacity="0" fill="#ffffff"/><defs><g transform="matrix(0.12320328503847122 0 0 0.12320328503847122 188 119)" id="L1_0"><path d="M299.5,432h-25.409c-2.784-11.354-11.737-20.306-23.091-23.091V206.091c13.759-3.374,24-15.806,24-30.591   c0-17.369-14.131-31.5-31.5-31.5S212,158.131,212,175.5c0,14.785,10.241,27.216,24,30.591v202.819   c-11.354,2.784-20.306,11.737-23.091,23.091H187.5c-12.958,0-23.5,10.542-23.5,23.5v24c0,4.142,3.358,7.5,7.5,7.5h144   c4.142,0,7.5-3.358,7.5-7.5v-24C323,442.542,312.458,432,299.5,432z M227,175.5c0-9.098,7.402-16.5,16.5-16.5s16.5,7.402,16.5,16.5   s-7.402,16.5-16.5,16.5S227,184.598,227,175.5z M243.5,423c6.396,0,11.942,3.666,14.679,9h-29.357   C231.558,426.666,237.104,423,243.5,423z M308,472H179v-16.5c0-4.687,3.813-8.5,8.5-8.5h112c4.687,0,8.5,3.813,8.5,8.5V472z"/><path d="M243.5,0C146.729,0,68,78.729,68,175.5c0,38.558,12.278,75.14,35.506,105.791c22.46,29.637,54.37,51.78,89.853,62.348   c3.968,1.181,8.146-1.078,9.329-5.047c1.182-3.97-1.077-8.146-5.047-9.329c-32.448-9.665-61.633-29.918-82.181-57.032   C94.225,244.209,83,210.76,83,175.5C83,87,155,15,243.5,15S404,87,404,175.5c0,35.26-11.225,68.709-32.46,96.731   c-20.547,27.113-49.733,47.367-82.181,57.032c-3.97,1.183-6.229,5.359-5.047,9.329c0.97,3.255,3.953,5.361,7.185,5.361   c0.708,0,1.43-0.102,2.144-0.314c35.483-10.568,67.393-32.711,89.853-62.348C406.722,250.64,419,214.058,419,175.5   C419,78.729,340.271,0,243.5,0z"/><path d="M243.5,111c35.565,0,64.5,28.935,64.5,64.5c0,18.23-7.839,35.716-21.507,47.975c-3.084,2.766-3.342,7.507-0.576,10.591   c1.481,1.652,3.529,2.493,5.586,2.493c1.783,0,3.573-0.632,5.005-1.917C313.344,219.542,323,197.985,323,175.5   c0-43.836-35.664-79.5-79.5-79.5S164,131.664,164,175.5c0,22.485,9.656,44.042,26.493,59.142c3.084,2.766,7.825,2.508,10.591-0.576   c2.766-3.083,2.508-7.825-0.576-10.591C186.839,211.216,179,193.73,179,175.5C179,139.935,207.935,111,243.5,111z"/><path d="M291.504,292.95c1.003,0,2.023-0.203,3.001-0.63C340.974,272.002,371,226.147,371,175.5C371,105.196,313.804,48,243.5,48   S116,105.196,116,175.5c0,50.647,30.026,96.502,76.495,116.82c3.795,1.657,8.217-0.072,9.877-3.868   c1.659-3.795-0.072-8.217-3.867-9.876C157.497,260.646,131,220.187,131,175.5C131,113.467,181.467,63,243.5,63   S356,113.467,356,175.5c0,44.687-26.497,85.146-67.505,103.077c-3.795,1.659-5.526,6.081-3.867,9.876   C285.86,291.271,288.614,292.95,291.504,292.95z"/></g><g transform="matrix(0.14395023090472725 -0.02978280646277917 0.02978280646277917 0.14395023090472725 223.65354410188857 248.03124919230356)" id="L1_1"><path d="M260.326,21.419C246.512,7.606,228.147,0,208.612,0c-19.535,0-37.9,7.606-51.713,21.419   c-13.814,13.814-21.421,32.181-21.421,51.716c0,5.448,0.612,10.799,1.766,15.992L38.254,210.638   c-5.913,7.257-6.315,17.917-1.563,25.767c-7.424,10.697-5.469,25.639,5.374,36.481c14.342,14.341,40.247,17.378,65.797-8.17   c14.771-14.771,36.186-23.261,48.542-10.907c8.918,8.918,9.215,27.818-11.208,48.242c-2.733,2.733-2.733,7.165,0.001,9.899   c1.366,1.366,3.158,2.05,4.949,2.05c1.791,0,3.583-0.684,4.95-2.051c27.224-27.225,24.893-54.354,11.207-68.04   c-7.666-7.666-18.925-11.172-30.889-9.616c-12.73,1.653-25.681,8.751-37.452,20.522c-19.992,19.99-37.272,16.897-45.998,8.171   c-5.457-5.457-6.52-11.569-4.945-16.123c3.622,2.275,7.867,3.439,12.118,3.439c4.992,0,9.984-1.592,13.954-4.826L196.18,145.201   c4.068,0.692,8.221,1.067,12.432,1.067c19.535,0,37.9-7.607,51.713-21.42c13.814-13.813,21.422-32.179,21.422-51.714   C281.746,53.6,274.139,35.233,260.326,21.419z M64.249,234.623c-3.062,2.494-8.201,2.233-10.994-0.562l-3.588-3.587   c-2.793-2.794-3.055-7.932-0.559-10.995l93.502-114.774c3.536,7.379,8.332,14.186,14.289,20.143   c6.715,6.715,14.51,11.949,22.987,15.57L64.249,234.623z M250.425,114.949c-11.168,11.169-26.018,17.319-41.814,17.319   c-15.795,0-30.645-6.15-41.813-17.32c-11.169-11.168-17.32-26.018-17.32-41.813c0-15.796,6.151-30.647,17.321-41.816   C177.967,20.15,192.817,14,208.612,14c15.796,0,30.646,6.15,41.814,17.319c11.17,11.169,17.321,26.02,17.321,41.816   C267.746,88.93,261.595,103.78,250.425,114.949z"/><path d="M241.959,43.733c-2.712-2.757-7.144-2.792-9.899-0.081c-2.756,2.711-2.792,7.144-0.081,9.899   c5.384,5.473,8.472,13.348,8.472,21.606c0,8.26-3.088,16.137-8.472,21.611c-2.711,2.756-2.675,7.188,0.082,9.898   c1.363,1.341,3.136,2.01,4.908,2.01c1.811,0,3.62-0.698,4.99-2.092c7.938-8.07,12.491-19.525,12.491-31.428   C254.451,63.257,249.898,51.804,241.959,43.733z"/></g><g transform="matrix(0.12187813967466354 0 0 0.12187813967466354 33.00000060998582 17)" id="L1_2"><path d="M198.064,184.257L384.196,71.251c0.386,0.126,0.73,0.334,1.122,0.448c3.375,0.981,6.817,1.466,10.24,1.466    c6.087,0,12.106-1.539,17.587-4.553c8.558-4.707,14.769-12.471,17.49-21.856c2.721-9.385,1.625-19.264-3.087-27.827    c-9.74-17.668-32.019-24.125-49.683-14.404c-8.558,4.712-14.769,12.476-17.49,21.856c-0.055,0.189-0.055,0.382-0.107,0.571    L44.685,184.257H8.737v308.039h474.822V184.257H198.064z M379.289,31.867c1.25-4.332,4.125-7.913,8.077-10.091    c2.577-1.418,5.356-2.087,8.106-2.087c5.962,0,11.75,3.159,14.827,8.736c4.49,8.159,1.51,18.447-6.654,22.937    c-3.942,2.178-8.519,2.683-12.846,1.423c-4.327-1.255-7.913-4.125-10.086-8.077C378.539,40.757,378.03,36.199,379.289,31.867z     M361.042,48.573c0.672,1.917,1.421,3.817,2.421,5.631c0.921,1.673,2.049,3.176,3.192,4.662L160.111,184.257H88.833    L361.042,48.573z M463.866,472.603H28.429V203.949h435.438V472.603z"/><path d="M319.838,235.497c-54.058,0-98.039,43.981-98.039,98.038s43.981,98.038,98.039,98.038    c54.058,0,98.038-43.981,98.038-98.038S373.895,235.497,319.838,235.497z M319.838,255.189c23.179,0,43.975,10.175,58.332,26.226    H261.506C275.862,265.365,296.658,255.189,319.838,255.189z M248.604,301.108h142.468c3.218,7.039,5.419,14.619,6.425,22.582    H242.179C243.184,315.727,245.386,308.146,248.604,301.108z M319.838,411.882c-23.179,0-43.975-10.175-58.332-26.226h116.664    C363.813,401.706,343.017,411.882,319.838,411.882z M391.071,365.963H248.604c-3.218-7.038-5.419-14.619-6.425-22.582h155.317    C396.491,351.345,394.289,358.925,391.071,365.963z"/><path d="M110.929,235.497c-20.135,0-36.514,16.38-36.514,36.514c0,20.135,16.38,36.514,36.514,36.514    c20.135,0,36.514-16.38,36.514-36.514C147.443,251.877,131.064,235.497,110.929,235.497z M110.929,288.834    c-9.274,0-16.822-7.548-16.822-16.822s7.548-16.822,16.822-16.822s16.822,7.548,16.822,16.822S120.203,288.834,110.929,288.834z"/><path d="M110.929,331.867c-20.135,0-36.514,16.38-36.514,36.514c0,20.135,16.38,36.514,36.514,36.514    c20.135,0,36.514-16.38,36.514-36.514C147.443,348.247,131.064,331.867,110.929,331.867z M110.929,385.204    c-9.274,0-16.822-7.548-16.822-16.822c0-9.274,7.548-16.822,16.822-16.822s16.822,7.548,16.822,16.822    C127.751,377.656,120.203,385.204,110.929,385.204z"/></g><g transform="matrix(0.1171875 0 0 0.1171875 34.00000137329101 181)" id="L1_3"><path d="M380.509,3.491c-4.655-4.655-11.636-4.655-16.291,0s-4.655,11.636,0,16.291c27.927,25.6,43.055,60.509,43.055,96.582    s-15.127,70.982-43.055,96.582c-4.655,4.655-4.655,11.636,0,16.291c2.327,2.327,5.818,3.491,8.145,3.491s5.818-1.164,8.145-3.491    c32.582-30.255,50.036-70.982,50.036-112.873C430.546,73.309,413.091,33.745,380.509,3.491z"/><path d="M332.8,37.236c-4.655-4.655-12.8-3.491-16.291,1.164c-4.655,4.655-3.491,12.8,1.164,16.291    c20.945,17.455,31.418,38.4,31.418,61.673c0,23.273-10.473,44.218-30.255,60.509c-4.655,4.655-5.818,11.636-1.164,16.291    c2.327,2.327,5.818,4.655,9.309,4.655c2.327,0,5.818-1.164,6.982-2.327c24.436-20.945,38.4-48.873,38.4-79.127    C372.364,86.109,358.4,58.182,332.8,37.236z"/><path d="M104.727,116.364c0-36.073,15.127-70.982,43.055-96.582c4.655-4.655,4.655-11.636,0-16.291s-11.636-4.655-16.291,0    C98.909,33.745,81.455,73.309,81.455,116.364s17.455,82.618,50.036,112.873c2.327,2.327,5.818,3.491,8.145,3.491    c3.491,0,5.818-1.164,8.145-3.491c4.655-4.655,4.655-11.636,0-16.291C119.855,187.345,104.727,152.436,104.727,116.364z"/><path d="M194.327,176.873c-20.945-16.291-31.418-37.236-31.418-60.509c0-23.273,10.473-44.218,30.255-60.509    c4.655-4.655,5.818-11.636,1.164-16.291s-11.636-5.818-16.291-1.164c-24.436,19.782-38.4,47.709-38.4,77.964    c0,30.255,13.964,58.182,39.564,79.127c2.327,2.327,4.655,2.327,6.982,2.327c3.491,0,6.982-1.164,9.309-4.655    C200.145,188.509,198.982,180.364,194.327,176.873z"/><path d="M415.418,492.218l-16.291-16.291c-6.982-6.982-15.127-10.473-24.436-10.473h-5.818l-90.764-271.127    c-1.164-4.655-5.818-8.145-10.473-8.145v-24.436c19.782-4.655,34.909-23.273,34.909-45.382c0-25.6-20.945-46.545-46.545-46.545    c-25.6,0-46.545,20.945-46.545,46.545c0,22.109,15.127,39.564,34.909,45.382v24.436c-4.655,0-9.309,3.491-10.473,8.145    l-90.764,271.127h-5.818c-9.309,0-18.618,3.491-24.436,10.473l-16.291,16.291c-4.655,4.655-4.655,11.636,0,16.291    s11.636,4.655,16.291,0l16.291-16.291c2.327-2.327,4.655-3.491,8.145-3.491h223.418h13.964c3.491,0,5.818,1.164,8.145,3.491    l16.291,16.291c2.327,2.327,5.818,3.491,8.145,3.491s5.818-1.164,8.146-3.491C420.073,503.855,420.073,496.873,415.418,492.218z     M232.727,116.364c0-12.8,10.473-23.273,23.273-23.273s23.273,10.473,23.273,23.273S268.8,139.636,256,139.636    S232.727,129.164,232.727,116.364z M252.509,209.455h6.982l26.764,81.455h-41.891c-6.982,0-11.636,4.655-11.636,11.636    s4.655,11.636,11.636,11.636H294.4l1.164,2.327l-40.727,37.236L217.6,316.509L252.509,209.455z M178.036,465.455l52.364-57.018    c4.655-4.655,3.491-11.636-1.164-16.291c-4.655-4.655-11.636-3.491-16.291,1.164l-32.582,36.073l29.091-87.273L332.8,465.455    H178.036z M271.127,371.2l32.582-29.091l31.418,93.091L271.127,371.2z"/></g><g transform="matrix(0.185104101896286 0 0 0.185104101896286 249.22693721204996 -6.765614837408066)" id="L1_4"><path d="M150,222.581c32.018,0,58.065-26.047,58.065-58.065V58.065C208.065,26.047,182.018,0,150,0S91.935,26.047,91.935,58.065     v106.452C91.935,196.534,117.982,222.581,150,222.581z M101.615,96.775c2.671,0,4.839-2.168,4.839-4.839     c0-2.671-2.168-4.839-4.839-4.839V62.903c2.671,0,4.839-2.168,4.839-4.839c0-2.584-2.042-4.655-4.597-4.79     c1.706-17.293,12.583-31.897,27.666-38.985c0.368,0.092,0.726,0.227,1.123,0.227c1.723,0,3.165-0.953,4.021-2.308     c3.373-1.132,6.89-1.926,10.544-2.289c0.135,2.555,2.206,4.597,4.79,4.597c2.584,0,4.655-2.042,4.79-4.597     c3.653,0.363,7.171,1.156,10.544,2.289c0.856,1.355,2.298,2.308,4.021,2.308c0.397,0,0.755-0.135,1.123-0.227     c15.082,7.089,25.955,21.692,27.663,38.985c-2.55,0.135-4.592,2.206-4.592,4.79c0,2.671,2.168,4.839,4.839,4.839v24.194     c-2.671,0-4.839,2.168-4.839,4.839c0,2.671,2.168,4.839,4.839,4.839v9.677h-96.774V96.775z M101.613,116.129h96.774v9.677     h-96.774V116.129z M101.613,135.484h96.774v29.032c0,26.681-21.706,48.387-48.387,48.387c-26.681,0-48.387-21.706-48.387-48.387     V135.484z"/><path d="M217.744,164.516h-0.002c0,37.355-30.387,67.742-67.742,67.742c-37.355,0-67.742-30.387-67.742-67.742v-62.903h-9.677     v62.903c0,35.995,24.731,66.242,58.065,74.869v50.937H72.581V300h58.065h38.71h58.065v-9.677h-58.065v-50.937     c33.334-8.627,58.065-38.874,58.065-74.869v-62.903h-9.677V164.516z M140.322,290.323v-49.06     c3.179,0.402,6.392,0.673,9.677,0.673c3.285,0,6.498-0.271,9.677-0.673v49.06H140.322z"/><rect x="53px" y="101px" width="9px" height="33px"/><rect x="237px" y="101px" width="9px" height="33px"/><circle cx="120" cy="91" r="4"/><circle cx="140" cy="91" r="4"/><circle cx="159" cy="91" r="4"/><circle cx="179" cy="91" r="4"/><circle cx="111" cy="72" r="4"/><circle cx="130" cy="72" r="4"/><circle cx="150" cy="72" r="4"/><circle cx="169" cy="72" r="4"/><circle cx="188" cy="72" r="4"/><circle cx="120" cy="58" r="4"/><circle cx="140" cy="58" r="4"/><circle cx="159" cy="58" r="4"/><circle cx="179" cy="58" r="4"/><circle cx="111" cy="43" r="4"/><circle cx="130" cy="43" r="4"/><circle cx="150" cy="43" r="4"/><circle cx="169" cy="43" r="4"/><circle cx="188" cy="43" r="4"/><circle cx="120" cy="29" r="4"/><circle cx="140" cy="29" r="4"/><circle cx="159" cy="29" r="4"/><circle cx="179" cy="29" r="4"/></g></defs><g fi:class="KUsePattern"><pattern id="pattern_L1_0" width="350" height="350" patternUnits="userSpaceOnUse"><use xlink:href="#L1_0" x="-350" y="-350"/><use xlink:href="#L1_0" x="0" y="-350"/><use xlink:href="#L1_0" x="350" y="-350"/><use xlink:href="#L1_0" x="-350" y="0"/><use xlink:href="#L1_0" x="0" y="0"/><use xlink:href="#L1_0" x="350" y="0"/><use xlink:href="#L1_0" x="-350" y="350"/><use xlink:href="#L1_0" x="0" y="350"/><use xlink:href="#L1_0" x="350" y="350"/></pattern><rect x="0" y="0" width="100%" height="100%" fill="url(#pattern_L1_0)"/></g><g fi:class="KUsePattern"><pattern id="pattern_L1_1" width="350" height="350" patternUnits="userSpaceOnUse"><use xlink:href="#L1_1" x="-350" y="-350"/><use xlink:href="#L1_1" x="0" y="-350"/><use xlink:href="#L1_1" x="350" y="-350"/><use xlink:href="#L1_1" x="-350" y="0"/><use xlink:href="#L1_1" x="0" y="0"/><use xlink:href="#L1_1" x="350" y="0"/><use xlink:href="#L1_1" x="-350" y="350"/><use xlink:href="#L1_1" x="0" y="350"/><use xlink:href="#L1_1" x="350" y="350"/></pattern><rect x="0" y="0" width="100%" height="100%" fill="url(#pattern_L1_1)"/></g><g fi:class="KUsePattern"><pattern id="pattern_L1_2" width="350" height="350" patternUnits="userSpaceOnUse"><use xlink:href="#L1_2" x="-350" y="-350"/><use xlink:href="#L1_2" x="0" y="-350"/><use xlink:href="#L1_2" x="350" y="-350"/><use xlink:href="#L1_2" x="-350" y="0"/><use xlink:href="#L1_2" x="0" y="0"/><use xlink:href="#L1_2" x="350" y="0"/><use xlink:href="#L1_2" x="-350" y="350"/><use xlink:href="#L1_2" x="0" y="350"/><use xlink:href="#L1_2" x="350" y="350"/></pattern><rect x="0" y="0" width="100%" height="100%" fill="url(#pattern_L1_2)"/></g><g fi:class="KUsePattern"><pattern id="pattern_L1_4" width="350" height="350" patternUnits="userSpaceOnUse"><use xlink:href="#L1_4" x="-350" y="-350"/><use xlink:href="#L1_4" x="0" y="-350"/><use xlink:href="#L1_4" x="350" y="-350"/><use xlink:href="#L1_4" x="-350" y="0"/><use xlink:href="#L1_4" x="0" y="0"/><use xlink:href="#L1_4" x="350" y="0"/><use xlink:href="#L1_4" x="-350" y="350"/><use xlink:href="#L1_4" x="0" y="350"/><use xlink:href="#L1_4" x="350" y="350"/></pattern><rect x="0" y="0" width="100%" height="100%" fill="url(#pattern_L1_4)"/></g><g fi:class="KUsePattern"><pattern id="pattern_L1_3" width="350" height="350" patternUnits="userSpaceOnUse"><use xlink:href="#L1_3" x="-350" y="-350"/><use xlink:href="#L1_3" x="0" y="-350"/><use xlink:href="#L1_3" x="350" y="-350"/><use xlink:href="#L1_3" x="-350" y="0"/><use xlink:href="#L1_3" x="0" y="0"/><use xlink:href="#L1_3" x="350" y="0"/><use xlink:href="#L1_3" x="-350" y="350"/><use xlink:href="#L1_3" x="0" y="350"/><use xlink:href="#L1_3" x="350" y="350"/></pattern><rect x="0" y="0" width="100%" height="100%" fill="url(#pattern_L1_3)"/></g></svg>